<svg version="1.1" xmlns="http://www.w3.org/2000/svg" xmlns:xlink="http://www.w3.org/1999/xlink" width="18.99107" height="14.43035" viewBox="0,0,18.99107,14.43035"><g transform="translate(-230.50021,-170.12051)"><g data-paper-data="{&quot;isPaintingLayer&quot;:true}" stroke="none" stroke-width="1" stroke-linecap="butt" stroke-linejoin="miter" stroke-miterlimit="10" stroke-dasharray="" stroke-dashoffset="0" style="mix-blend-mode: normal"><path d="M237.7297,178.14682c0.23979,-0.72698 0.09927,-1.21164 -0.23979,-1.21164c-0.23979,0 0,-0.96931 0.47957,-0.48466c0.47958,0.48466 0,1.45396 0,2.42327c0,0.24209 -0.47957,0 -0.23978,-0.72698zM236.80053,178.14682c0.23979,-0.72698 0.09927,-1.21164 -0.23979,-1.21164c-0.23979,0 0,-0.96931 0.47958,-0.48466c0.47958,0.48466 0,1.45396 0,2.42327c0,0.24209 -0.47957,0 -0.23979,-0.72698z" fill-opacity="0.48235" fill="#000000" fill-rule="nonzero"/><path d="M240.96922,178.23745c1.52912,0 2.76882,1.0849 2.76882,2.42327c0,1.33789 -0.54743,2.6656 -2.07655,2.6656c-2.30747,0 -2.53814,-1.93862 -3.23041,-2.18094c-0.21893,-0.07657 1.00902,-2.90769 2.53814,-2.90793z" fill-opacity="0.48235" fill="#000000" fill-rule="nonzero"/><path d="M241.22579,183.2546c-0.49828,-0.13062 -0.91791,-0.45727 -1.18239,-0.92012c-0.26424,-0.4626 -0.34097,-1.00542 -0.21652,-1.52836c0.10575,-0.44395 0.36951,-0.8181 0.74285,-1.0534c0.37359,-0.23578 0.81192,-0.30412 1.23443,-0.19313c0.37239,0.09814 0.66589,0.39329 0.80521,0.81107c0.13835,0.41366 0.01966,0.7861 -0.2561,1.01753c-0.30765,0.25808 -0.87258,0.18926 -0.69226,0c0.23067,-0.24232 0.23067,-0.72698 -0.08057,-0.88813c-0.16953,-0.08773 -0.37359,-0.01842 -0.53569,0.0836c-0.16209,0.10226 -0.27671,0.26462 -0.32227,0.45727c-0.06499,0.27213 -0.0247,0.5542 0.11246,0.79508c0.1374,0.24063 0.35584,0.4105 0.61481,0.47811c0.35369,0.0933 0.7208,0.03538 1.03372,-0.16139c0.31268,-0.19701 0.53353,-0.51034 0.62201,-0.88183c0.24363,-1.02335 -0.35129,-2.06414 -1.32555,-2.32004c-1.28022,-0.33587 -2.58155,0.48418 -2.90142,1.82812c-0.06211,0.25977 -0.31364,0.41826 -0.5599,0.35259c-0.24698,-0.06494 -0.39733,-0.32811 -0.33546,-0.58788c0.44337,-1.86277 2.248,-2.99953 4.02075,-2.53353c1.46821,0.38554 2.36406,1.95364 1.99719,3.49557c-0.14843,0.62303 -0.51865,1.14791 -1.04259,1.47771c-0.3604,0.22731 -0.76349,0.34362 -1.17304,0.34362c-0.18607,0 -0.37382,-0.02424 -0.55966,-0.07245z" fill-opacity="0.48235" fill="#000000" fill-rule="nonzero"/><path d="M237.47455,178.02079c0.23979,-0.72698 0.09927,-1.21164 -0.23979,-1.21164c-0.23979,0 0,-0.96931 0.47957,-0.48465c0.47957,0.48465 0,1.45396 0,2.42327c0,0.24209 -0.47957,0 -0.23979,-0.72698zM236.54538,178.02079c0.23979,-0.72698 0.09927,-1.21164 -0.23979,-1.21164c-0.23979,0 0,-0.96931 0.47957,-0.48465c0.47957,0.48465 0,1.45396 0,2.42327c0,0.24209 -0.47957,0 -0.23979,-0.72698z" fill="#9266cc" fill-rule="nonzero"/><path d="M240.71407,178.11142c1.52912,0 2.76882,1.0849 2.76882,2.42327c0,1.33789 -0.54743,2.6656 -2.07655,2.6656c-2.30747,0 -2.53814,-1.93862 -3.23041,-2.18095c-0.21893,-0.07658 1.00902,-2.90769 2.53814,-2.90793z" fill="#ffcc4d" fill-rule="nonzero"/><path d="M240.97064,183.12856c-0.49828,-0.13061 -0.9179,-0.45727 -1.18239,-0.92012c-0.26424,-0.4626 -0.34098,-1.00542 -0.21653,-1.52836c0.10575,-0.44394 0.36951,-0.8181 0.74286,-1.0534c0.37359,-0.23578 0.81192,-0.30412 1.23442,-0.19314c0.37239,0.09814 0.66589,0.3933 0.8052,0.81107c0.13836,0.41365 0.01966,0.78611 -0.25609,1.01753c-0.30765,0.25808 -0.87258,0.18926 -0.69226,0c0.23067,-0.24233 0.23067,-0.72698 -0.08057,-0.88813c-0.16953,-0.08772 -0.37359,-0.01842 -0.53568,0.0836c-0.1621,0.10226 -0.27671,0.26462 -0.32227,0.45727c-0.06498,0.27213 -0.0247,0.5542 0.11246,0.79508c0.1374,0.24063 0.35584,0.4105 0.61481,0.47811c0.35369,0.0933 0.7208,0.03538 1.03372,-0.16139c0.31268,-0.19701 0.53353,-0.51034 0.62201,-0.88183c0.24362,-1.02335 -0.35129,-2.06414 -1.32554,-2.32004c-1.28022,-0.33587 -2.58154,0.48417 -2.90142,1.82812c-0.0621,0.25977 -0.31364,0.41826 -0.5599,0.35259c-0.24698,-0.06494 -0.39733,-0.32811 -0.33546,-0.58789c0.44337,-1.86277 2.248,-2.99953 4.02075,-2.53353c1.46821,0.38554 2.36406,1.95364 1.99718,3.49557c-0.14843,0.62302 -0.51866,1.14791 -1.04259,1.47771c-0.3604,0.2273 -0.76348,0.34362 -1.17304,0.34362c-0.18607,0 -0.37383,-0.02423 -0.55966,-0.07246z" fill="#ffac33" fill-rule="nonzero"/><g fill-rule="evenodd"><path d="M235.83352,179.32752c0,0 -1.8667,1.75549 -2.66662,1.4805c-1.29729,-0.44595 -1.77618,-1.25884 -1.77618,-1.25884c0,0 -1.03091,-1.88433 -0.87431,-2.14655c0.1566,-0.26222 0.50896,0.20401 0.87431,0.3568c0.36535,0.15296 0.38587,-0.47864 0.76156,-0.58528c0.48249,-0.13688 0.57082,0.39491 0.9819,0.50416c0.41108,0.10926 0.70127,-1.1036 0.96451,-0.07167c0.2681,1.05063 1.73484,1.72087 1.73484,1.72087" fill="#4c97ff"/><path d="M237.05193,180.80804c-3.61877,2.2177 -5.66117,-1.25901 -5.66117,-1.25901c2.6126,3.08355 2.18194,-2.93409 5.66117,-3.20872c2.04679,-0.16135 2.68181,2.4981 2.68181,2.4981" fill="#3d79cc"/></g><g fill-rule="evenodd"><path d="M241.21806,173.76607c0.05169,0.19147 -0.51912,0.54547 -1.27491,0.79044c-0.75564,0.24497 -1.41028,0.28836 -1.46181,0.09688c-0.05169,-0.19147 0.51912,-0.54547 1.27491,-0.79044c0.75564,-0.24497 1.41012,-0.28835 1.46181,-0.09688" fill="#3d79cc"/><path d="M241.21806,173.76607c0,0 -1.12025,-0.12247 -1.96666,0.32461c-0.12159,0.06295 -0.23744,0.13996 -0.34593,0.23515c-0.12164,0.10479 -0.23128,0.22945 -0.32629,0.37961c-0.00978,0.00803 -0.02077,0.01087 -0.03177,0.01038c-0.05631,-0.00341 -0.11175,-0.11505 -0.10881,-0.19537l0.1955,-4.2125c0.00846,-0.18668 0.22285,-0.25632 0.32383,-0.10344l2.23981,3.42851z" fill="#4c97ff"/><path d="M240.89386,173.75092c0.01435,0.01694 -1.66101,-0.10575 -2.31477,0.95425c0,0 -0.07371,0.06102 -0.13435,-0.12457c-0.00595,-0.01807 -0.00737,-0.03971 -0.00637,-0.06006l0.19609,-4.21323c0.00568,-0.13683 0.12278,-0.21093 0.22411,-0.17972c0,0 -0.07904,2.06888 0.07866,3.09197c0.14532,0.94356 0.46621,0.0615 1.95663,0.53135" fill="#4280d7"/><path d="M238.57584,171.55025c0.00349,0.0007 0.00542,0.00182 0.00931,0.00425l0.1433,0.10345l0.15477,-0.07341c0.05085,-0.02361 0.10386,0.02863 0.09043,0.08761l-0.0412,0.18118l0.11201,0.14462c0.03494,0.04529 0.00854,0.11754 -0.04603,0.12052l-0.16835,0.01039l-0.08723,0.16114c-0.02679,0.05249 -0.09691,0.04576 -0.1171,-0.0115l-0.06363,-0.17668l-0.01069,-0.00365z" fill="#e6ac00"/><path d="M240.61313,172.7363l-0.07637,0.06098l0.0052,0.2756c0.00097,0.08922 -0.08972,0.14009 -0.15418,0.08791l-0.19958,-0.16743l-0.23399,0.08797c-0.07555,0.02803 -0.14776,-0.05281 -0.12309,-0.1374l0.07853,-0.26047l-0.14908,-0.22218c-0.04854,-0.0719 -0.00267,-0.17421 0.0777,-0.17273l0.24775,0.00602l0.11812,-0.18566z" fill="#ffbf00"/><path d="M239.28308,173.87219l-0.06796,0.13932l0.03636,0.07918c-0.1216,0.06278 -0.23744,0.13996 -0.34609,0.23499c-0.009,-0.00741 -0.0164,-0.02016 -0.01736,-0.03587l-0.01927,-0.15865l-0.12758,-0.07222c-0.04135,-0.02344 -0.04058,-0.08807 -0.00048,-0.11025l0.128,-0.06941l0.02148,-0.15602c0.00667,-0.0504 0.06369,-0.06978 0.09538,-0.0329l0.09909,0.11587l0.13906,-0.02499c0.0457,-0.00777 0.07986,0.04667 0.05939,0.09095" fill="#e6ac00"/><path d="M239.28642,172.93004c0.02038,0.07632 -0.01819,0.15585 -0.08637,0.1779c-0.06819,0.02188 -0.14007,-0.02222 -0.16045,-0.09854c-0.02054,-0.07632 0.01819,-0.15585 0.08638,-0.17773c0.06818,-0.02205 0.14006,0.02205 0.16044,0.09837" fill="#ffbf00"/><path d="M239.32992,170.77499c-0.00798,0.00636 -0.01654,0.01083 -0.02564,0.01374c-0.06602,0.02124 -0.13573,-0.02017 -0.15552,-0.09407c-0.01436,-0.0537 0.00043,-0.10785 0.03517,-0.14272z" fill="#ffbf00"/><path d="M238.99779,172.1186l-0.14692,0.00929c-0.00583,-0.17475 -0.01018,-0.35132 -0.01114,-0.52281l0.0429,-0.01971c0.0521,-0.02368 0.10492,0.02788 0.09068,0.08637l-0.04082,0.18239l0.1124,0.14302c0.0337,0.04553 0.00765,0.11864 -0.04708,0.12145" fill="#ffbf00"/></g><g fill-rule="evenodd"><path d="M246.92556,177.19535c0.52556,-1.27737 1.3449,-2.97185 1.44309,-2.9215c0.09835,0.05035 -0.56173,1.82664 -1.08745,3.10401c-0.52556,1.27737 -0.71787,1.57228 -0.81605,1.52193c-0.09819,-0.05052 -0.06515,-0.4269 0.46041,-1.70444" fill="#b27b00"/><path d="M248.53043,173.1485c0.13828,-0.12989 0.34969,-0.0264 0.35815,0.17499l0.02553,0.62321l0.47435,0.32987c0.15347,0.10646 0.13061,0.36309 -0.03837,0.43424l-0.52305,0.21957l-0.13452,0.60573c-0.04338,0.19562 -0.26904,0.25086 -0.38164,0.09335l-0.34891,-0.48756l-0.5575,0.04458c-0.18025,0.01433 -0.29692,-0.2082 -0.19748,-0.37655l0.30741,-0.52095l-0.21016,-0.57811c-0.06797,-0.18688 0.08566,-0.37952 0.2598,-0.32603l0.53887,0.16537l0.42752,-0.40172" fill="#ffbf00"/></g><g fill-rule="evenodd"><path d="M235.29283,183.55021c-1.42258,0 -0.56142,-6.60991 3.06674,-6.51184c3.69566,0.09999 5.03743,6.51184 5.03743,6.51184z" fill="#efab00"/><path d="M246.07683,180.89709c0,0 -7.3838,2.1948 -8.70913,2.41279c-1.77477,0.29194 -2.36297,-0.34508 -2.5772,-1.37666c-0.35439,-1.70636 0.88073,-1.76265 1.25924,-2.69494c0.37835,-0.93246 -0.51178,-2.44933 1.25924,-2.52764c1.4813,-0.06556 1.50385,-1.33611 2.23205,-1.42946c1.12942,-0.14475 1.37606,1.05221 2.21169,1.38575c0.78928,0.31502 1.20459,-0.49105 2.08798,-0.09475c0.75686,0.33966 0.791,2.14497 1.78793,2.5203c1.62475,0.61185 0.4482,1.80461 0.4482,1.80461" fill="#59c059"/><path d="M236.48264,180.37418c-0.16114,-0.05454 -0.25323,-0.24666 -0.20421,-0.42655l0.09819,-0.36152c0.04886,-0.17988 0.22081,-0.2825 0.38211,-0.22796l0.86225,0.29177c0.1613,0.05472 0.25323,0.24666 0.20421,0.42672l-0.09819,0.36134c-0.04886,0.18006 -0.22081,0.2825 -0.38211,0.22796l-0.86225,-0.29177" fill="#e8511c"/><path d="M235.90487,180.11895c0.17853,0.0507 0.43379,0.26747 0.64207,0.32515c-0.53871,1.5576 -0.63581,3.05051 -1.30293,3.10296h-0.00313c-0.51209,-0.0472 -1.0649,-0.58213 -0.74543,-1.1328c0.18949,-0.3269 -0.10492,-0.73247 -0.02506,-1.10832c0.11432,-0.54192 0.61075,-0.65905 0.78301,-0.71324c0.18792,-0.05769 0.38681,-0.54892 0.65147,-0.47375" fill="#c18500"/><path d="M237.24692,179.52451c-0.15817,0.31991 -0.28815,0.64856 -0.39777,0.97372l-0.14721,-0.0507l-0.14094,-0.04703c0.11432,-0.32533 0.249,-0.65223 0.41186,-0.96847z" fill="#c6431a"/><path d="M236.84915,180.4983c-0.51835,1.52438 -0.62328,2.97185 -1.26691,3.04702c-0.07517,0 -0.11275,0 -0.23804,0.00524h-0.03132c-0.02349,0 -0.04541,-0.00175 -0.06891,-0.0035c0.66713,-0.05244 0.76422,-1.54536 1.30293,-3.10296c0.05638,0.01573 0.10806,0.01923 0.15504,0.0035z" fill="#a06b00"/><path d="M237.13268,178.37423c-0.1519,0.08129 -0.33591,0.00892 -0.40858,-0.16083l-0.02819,-0.06538c-0.07266,-0.16974 -0.00783,-0.3748 0.14407,-0.45609l0.42048,-0.22464c0.15206,-0.08129 0.33591,-0.00892 0.40858,0.16065l0.02819,0.06556c0.07266,0.16957 0.00783,0.37498 -0.14407,0.45609l-0.42048,0.22464" fill="#e8511c"/><path d="M241.40001,176.9321c-0.11432,0.00175 -0.23177,0.00874 -0.35236,0.01923c-2.1016,0.18006 -3.17433,1.30412 -3.80074,2.57327l-0.27405,-0.09265c0.63267,-1.23244 1.70383,-2.30405 3.75376,-2.48062c0.2349,-0.02098 0.45884,-0.02622 0.67339,-0.01923" fill="#4ba04b"/><path d="M245.02709,179.57112c-0.08425,-0.16293 -0.03383,-0.37323 0.11228,-0.46728l0.14909,-0.09615c0.14595,-0.09405 0.33435,-0.03759 0.4186,0.12517l0.31837,0.6157c0.08425,0.16293 0.03383,0.37305 -0.11228,0.46728l-0.14909,0.09597c-0.14595,0.09405 -0.33435,0.03776 -0.4186,-0.12517l-0.31837,-0.61552" fill="#e8511c"/><path d="M241.41531,177.21198c-0.15895,0.06258 -0.33482,-0.03112 -0.39088,-0.20855l-0.05732,-0.18128c-0.05622,-0.17744 0.02772,-0.37375 0.18667,-0.43651l0.60041,-0.23687c0.15895,-0.06258 0.33482,0.03129 0.39088,0.20855l0.05747,0.18128c0.05622,0.17744 -0.02788,0.37393 -0.18683,0.43651l-0.60041,0.23687" fill="#e8511c"/><path d="M235.52771,183.55021c1.40942,0 0.34813,-6.15609 5.52023,-6.59925c4.11739,-0.35278 5.13656,3.54664 5.35063,5.59441c0.05591,0.53441 -0.3132,1.00483 -0.79491,1.00483z" fill="#ffbf00"/><path d="M239.28405,176.77503c-0.04541,0 -0.09052,-0.02203 -0.12152,-0.06451c-0.05465,-0.07482 -0.04448,-0.18495 0.02255,-0.24579l0.82216,-0.74751c0.06718,-0.06066 0.16584,-0.04965 0.22034,0.02517c0.05465,0.07482 0.04448,0.18495 -0.02255,0.24596l-0.82216,0.74733c-0.02913,0.0264 -0.06405,0.03933 -0.09882,0.03933" fill="#ffbf00"/><path d="M244.62275,177.32218c-0.00971,0 -0.01942,-0.00087 -0.02928,-0.00315l-1.04188,-0.22009c-0.08504,-0.01783 -0.14079,-0.10943 -0.12481,-0.20418c0.01613,-0.09492 0.09819,-0.15821 0.18291,-0.13933l1.04203,0.22027c0.08504,0.01783 0.14079,0.10943 0.12466,0.20418c-0.01409,0.08391 -0.07987,0.1423 -0.15363,0.1423" fill="#ffbf00"/><path d="M235.7228,180.91092c-0.03477,0 -0.06984,-0.01276 -0.09897,-0.03951l-0.82169,-0.74821c-0.06703,-0.06084 -0.07705,-0.17097 -0.02224,-0.24579c0.05465,-0.07465 0.15316,-0.08618 0.22034,-0.025l0.82169,0.74838c0.06703,0.06084 0.07705,0.17097 0.02224,0.24579c-0.03085,0.04231 -0.07595,0.06433 -0.12137,0.06433" fill="#ffbf00"/><path d="M244.55821,180.41158c-0.25542,0 -0.25589,-0.44315 0,-0.44315c0.25558,0 0.25589,0.44315 0,0.44315" fill="#efab00"/><path d="M242.52514,180.80797c-0.25542,0 -0.25589,-0.44315 0,-0.44315c0.25558,0 0.25589,0.44315 0,0.44315" fill="#efab00"/><path d="M242.27937,182.63259c-0.25542,0 -0.25589,-0.44315 0,-0.44315c0.25558,0 0.25604,0.44315 0,0.44315" fill="#efab00"/><path d="M238.91686,182.85419c-0.25542,0 -0.25589,-0.44315 0,-0.44315c0.25542,0 0.25589,0.44315 0,0.44315" fill="#efab00"/><path d="M239.31028,179.0011c-0.25542,0 -0.25589,-0.44315 0,-0.44315c0.25542,0 0.25589,0.44315 0,0.44315" fill="#efab00"/><path d="M241.41484,177.99695c-0.25542,0 -0.25589,-0.44333 0,-0.44333c0.25542,0 0.25589,0.44333 0,0.44333" fill="#efab00"/><path d="M240.38316,181.07634c-0.25542,0 -0.25589,-0.44315 0,-0.44315c0.25542,0 0.25589,0.44315 0,0.44315" fill="#efab00"/><path d="M238.18561,181.25116c-0.25542,0 -0.25589,-0.44315 0,-0.44315c0.25542,0 0.25589,0.44315 0,0.44315" fill="#efab00"/><path d="M244.9459,182.21145c-0.25542,0 -0.25589,-0.44315 0,-0.44315c0.25542,0 0.25589,0.44315 0,0.44315" fill="#efab00"/><path d="M243.397,178.77951c-0.25558,0 -0.25604,-0.44315 0,-0.44315c0.25542,0 0.25589,0.44315 0,0.44315" fill="#efab00"/><path d="M236.56102,180.40047l0.14094,0.0472c-0.04698,0.01556 -0.09866,0.01224 -0.15504,-0.0035c0.0047,-0.01399 0.0094,-0.02797 0.01409,-0.0437" fill="#4ba04b"/></g><path d="M237.75052,176.40032c0,0 0.54795,0.05419 0.75357,0.76848c0.02537,0.08811 -0.07439,0.15646 -0.13421,0.09248c-0.23616,-0.25191 -0.68028,-0.59192 -1.31797,-0.52637" fill="#3d79cc" fill-rule="evenodd"/><g fill-rule="evenodd"><path d="M242.44607,179.78161c-0.0296,-0.42305 -0.24571,-0.88631 -0.89248,-0.88631c-0.02208,0 -0.04385,0 -0.06421,0.00332c0.84722,0.03496 0.905,0.90204 0.80008,1.32876c-0.15817,0.64489 0.04385,0.92652 0.04385,1.21846c0,0.60643 -0.28815,0.76219 -0.25839,1.16759c0.02678,0.36903 0.12685,0.65223 0.14251,0.93718h-1.26065c-0.09866,-0.27638 -0.30835,-0.6573 -0.30365,-0.95291c0.00924,-0.54874 0.1862,-0.55748 0.20186,-1.11357c0.01566,-0.55748 -0.3132,-0.83911 -0.3132,-1.32317c0,-0.10838 0.00626,-0.2325 0.02506,-0.36029c-0.50896,0.08041 -0.73133,-0.13968 -0.38681,-0.25523c0.42283,-0.14317 0.5763,-0.80222 1.14476,-0.80572c0.10806,0 0.18636,0.03479 0.23334,0.0944c0.04698,-0.05961 0.12528,-0.0944 0.23334,-0.0944c0.56847,0.0035 0.72209,0.66255 1.14476,0.80572c0.36802,0.12254 0.09255,0.36536 -0.49017,0.23617" fill="#efab00"/><path d="M241.55433,178.89593c0.90015,0 0.96201,0.89645 0.85552,1.33244c-0.15754,0.64541 0.04416,0.92669 0.04432,1.21793c0.00047,0.60626 -0.28799,0.76307 -0.25855,1.16741c0.02928,0.40277 0.14564,0.7038 0.1458,1.01515c0,0.35889 -0.23506,0.54612 -0.49298,0.68807c-0.34844,0.19125 -0.66384,0.19037 -1.16794,0.05367c-0.62938,-0.17044 -0.74136,0.41921 -1.70164,0.06451c-0.90344,-0.33372 0.62046,-0.03759 0.87932,-0.28897c0.25886,-0.25103 0.47999,-0.29509 1.0519,-0.2332c0.57176,0.06223 -0.14345,-0.76796 -0.13546,-1.31391c0.00799,-0.54909 0.18479,-0.55731 0.20092,-1.11427c0.01597,-0.55731 -0.31352,-0.83789 -0.31352,-1.32247c0,-0.47724 0.1126,-1.26636 0.89232,-1.26636" fill="#ffffff"/><path d="M242.44607,179.78161c-0.0877,-0.01923 -0.18322,-0.04737 -0.28345,-0.08566c-0.31634,-0.11887 -0.51366,-0.3026 -0.60448,-0.47742c-0.09083,0.17481 -0.28815,0.35854 -0.60433,0.47742c-0.09255,0.03496 -0.18166,0.06101 -0.26325,0.08199c0.00955,-0.06468 0.02208,-0.13111 0.04087,-0.19387c0.09537,-0.36187 0.32103,-0.68877 0.82216,-0.68877c0.55108,0 0.78912,0.33564 0.86585,0.69751c0.01253,0.06276 0.02208,0.12587 0.02662,0.1888" fill="#e6e6e6"/><path d="M242.16268,179.51411c-0.31649,-0.11887 -0.51366,-0.30243 -0.60448,-0.47899c-0.09083,0.17656 -0.28815,0.36012 -0.60448,0.47899c-0.76735,0.28844 -1.19644,-0.00874 -0.77362,-0.15209c0.42283,-0.1416 0.5763,-0.80065 1.14461,-0.80415c0.10821,0 0.18808,0.03479 0.23349,0.0944c0.04541,-0.05961 0.12513,-0.0944 0.23334,-0.0944c0.56847,0.0035 0.72194,0.66255 1.14461,0.80415c0.42298,0.14335 -0.00626,0.44053 -0.77346,0.15209" fill="#ffffff"/><path d="M242.34116,183.62839c0,0.36029 -0.2349,0.54717 -0.49314,0.68877c-0.34781,0.19055 -0.66415,0.19055 -1.16684,0.05419c-0.62954,-0.17114 -0.7423,0.41798 -1.70227,0.06293c-0.44945,-0.16607 -0.29754,-0.17481 0,-0.17481c0.95997,0.35505 1.07273,-0.23408 1.70227,-0.06468c0.50269,0.13653 0.81903,0.1381 1.16684,-0.05402c0.24117,-0.13111 0.46025,-0.3026 0.4886,-0.61552c0.00298,0.03496 0.00454,0.06818 0.00454,0.10314" fill="#e6e6e6"/></g></g></g></svg>
